<svg width="82" height="123" viewBox="0 0 82 123" fill="none" xmlns="http://www.w3.org/2000/svg">
<g clip-path="url(#clip0_206_7)">
<path fill-rule="evenodd" clip-rule="evenodd" d="M40.95 0C43.59 11.28 46.62 20.29 49.99 26.98C53.36 33.67 58.52 40.92 65.44 48.74L68.42 52.06C77.46 62.12 81.97 72.21 81.97 82.27C81.97 93.41 77.95 102.96 69.9 110.92C61.82 118.88 52.19 122.88 40.97 122.88C29.78 122.88 20.17 118.88 12.09 110.92C4.03 102.96 0 93.41 0 82.27C0 72.21 4.51 62.12 13.55 52.06L16.53 48.74C23.44 40.92 28.6 33.67 31.98 26.98C35.34 20.29 38.35 11.28 40.95 0ZM13.81 76.29C13.6 74.01 15.29 71.99 17.57 71.78C19.86 71.57 21.88 73.26 22.08 75.54C22.6 81.06 23.81 86.15 26.12 90.54C28.35 94.78 31.67 98.43 36.47 101.24C38.45 102.4 39.11 104.95 37.95 106.92C36.79 108.9 34.24 109.56 32.27 108.4C26.02 104.74 21.69 99.98 18.76 94.41C15.91 88.99 14.43 82.86 13.81 76.29Z" fill="#A3C7E8"/>
</g>
<defs>
<clipPath id="clip0_206_7">
<rect width="81.96" height="122.88" fill="white"/>
</clipPath>
</defs>
</svg>
