<svg width="425" height="512" viewBox="0 0 425 512" fill="none" xmlns="http://www.w3.org/2000/svg">
<g clip-path="url(#clip0_206_5)">
<path fill-rule="evenodd" clip-rule="evenodd" d="M359.22 243.18C345.05 311.22 284.75 362.34 212.5 362.34C140.25 362.34 79.95 311.22 65.78 243.18H136.82C140.18 257.49 147.49 270.27 157.53 280.31C171.59 294.38 191.03 303.09 212.51 303.09C232.2 303.09 250.27 295.64 264.06 283.37C265.24 282.43 266.38 281.41 267.48 280.31C277.52 270.27 284.83 257.49 288.19 243.18H359.22ZM72.05 451.71H186.77V423.39C138.38 417.55 94.99 395.45 62.25 362.7C23.78 324.24 0 271.11 0 212.43C0 153.76 23.78 100.64 62.25 62.18C75.47 48.96 90.32 36.93 106.58 27.28C168.47 -9.44999 259.12 -9.12999 320.54 28.51C335.98 37.97 350.12 49.53 362.76 62.18C401.22 100.64 425 153.76 425 212.44C425 271.11 401.22 324.24 362.76 362.7C330.01 395.45 286.62 417.55 238.22 423.39V451.71H352.94C372.76 451.71 388.96 467.98 388.96 487.73V511.47H36.03V487.73C36.03 467.91 52.24 451.71 72.05 451.71V451.71ZM212.5 32.3C312.01 32.3 392.67 112.96 392.67 212.47C392.67 311.97 312.01 392.64 212.5 392.64C112.99 392.64 32.33 311.97 32.33 212.47C32.33 112.96 112.99 32.3 212.5 32.3V32.3ZM126.71 89.15C123.75 84.03 125.49 77.48 130.6 74.51C135.72 71.55 142.27 73.3 145.23 78.41L158.62 101.59C161.58 106.7 159.84 113.26 154.72 116.22C149.61 119.18 143.05 117.44 140.09 112.33L126.71 89.15V89.15ZM76.84 149.41C71.73 146.48 69.96 139.94 72.9 134.82C75.83 129.71 82.37 127.95 87.48 130.88L110.66 144.26C115.77 147.19 117.54 153.73 114.6 158.85C111.67 163.96 105.13 165.72 100.02 162.79L76.84 149.41ZM337.52 124.84C342.63 121.91 349.17 123.67 352.1 128.78C355.04 133.9 353.27 140.44 348.16 143.37L324.98 156.75C319.87 159.68 313.33 157.92 310.4 152.81C307.46 147.69 309.23 141.15 314.34 138.22L337.52 124.84ZM277.21 74.97C280.14 69.86 286.68 68.1 291.79 71.03C296.91 73.96 298.67 80.5 295.74 85.62L282.36 108.79C279.42 113.9 272.89 115.67 267.77 112.73C262.66 109.8 260.9 103.26 263.83 98.15L277.21 74.97ZM200.03 61.87C200.03 55.95 204.83 51.14 210.75 51.14C216.68 51.14 221.48 55.95 221.48 61.87V88.64C221.48 94.56 216.68 99.37 210.75 99.37C204.83 99.37 200.03 94.56 200.03 88.64V61.87ZM229.58 193.59C240.86 199.67 248.54 211.61 248.54 225.34C248.54 245.24 232.41 261.37 212.51 261.37C192.61 261.37 176.47 245.24 176.47 225.34C176.47 211.61 184.15 199.67 195.45 193.59V137.02L212.51 119.96L229.58 137.02V193.59Z" fill="#A3C7E8"/>
</g>
<defs>
<clipPath id="clip0_206_5">
<rect width="425" height="511.47" fill="white"/>
</clipPath>
</defs>
</svg>
