<svg width="507" height="512" viewBox="0 0 507 512" fill="none" xmlns="http://www.w3.org/2000/svg">
<g clip-path="url(#clip0_206_10)">
<path d="M253.5 384.3L26.7699 509.55L25.4499 510.16C21.6699 511.8 17.8099 512.08 14.2799 511.32L14.2399 511.31C10.8899 510.6 7.83995 508.93 5.42995 506.61L5.33995 506.51C2.90995 504.14 1.13995 501.06 0.389949 497.57C-0.410051 493.84 -0.0300508 489.77 1.95995 485.8C84.5899 331.3 154.33 163.9 237.35 9.85C239.25 6.55 241.77 4.08 244.62 2.43C247.38 0.83 250.42 0.04 253.49 0.04V0C256.5 0 259.52 0.82 262.31 2.43H262.35C265.2 4.08 267.74 6.56 269.65 9.85L505.03 485.8C507.02 489.77 507.41 493.84 506.61 497.57L506.45 498.23C505.62 501.48 503.91 504.34 501.61 506.57L501.57 506.61C499.18 508.91 496.12 510.59 492.75 511.31C488.89 512.15 484.65 511.77 480.6 509.75L253.5 384.3ZM24.3099 487.27L248.52 363.42C251.52 361.78 255.26 361.66 258.48 363.42L482.69 487.27L253.5 23.77L24.3099 487.27Z" fill="#A3C7E8"/>
</g>
<defs>
<clipPath id="clip0_206_10">
<rect width="507" height="511.73" fill="white"/>
</clipPath>
</defs>
</svg>
