<svg width="123" height="75" viewBox="0 0 123 75" fill="none" xmlns="http://www.w3.org/2000/svg">
<path d="M28.69 53.38C27.08 53.38 25.78 52.08 25.78 50.47C25.78 48.86 27.08 47.56 28.69 47.56H80.06C80.27 47.56 80.48 47.58 80.68 47.63C82.52 47.91 84.24 48.43 85.78 49.26C87.48 50.18 88.93 51.45 90.05 53.15C93.9 58.98 93.33 64.39 90.61 68.39C88.84 71 86.14 72.94 83.16 73.96C80.16 74.99 76.84 75.09 73.84 73.99C69.3 72.33 65.62 68.1 65.08 60.44C64.97 58.84 66.18 57.46 67.78 57.35C69.38 57.24 70.76 58.45 70.87 60.05C71.22 64.99 73.28 67.61 75.81 68.53C77.52 69.15 79.48 69.07 81.29 68.45C83.13 67.82 84.77 66.66 85.81 65.13C87.3 62.94 87.52 59.85 85.2 56.34C84.63 55.48 83.89 54.83 83.02 54.36C82.11 53.87 81.05 53.55 79.89 53.37H28.69V53.38ZM15.41 27.21C13.8 27.21 12.5 25.91 12.5 24.3C12.5 22.69 13.8 21.39 15.41 21.39H66.62C67.79 21.21 68.85 20.89 69.76 20.4C70.63 19.93 71.37 19.28 71.94 18.42C74.26 14.91 74.03 11.82 72.55 9.63001C71.51 8.10001 69.87 6.94001 68.03 6.31001C66.22 5.69001 64.25 5.61001 62.55 6.23001C60.03 7.15001 57.96 9.77001 57.61 14.71C57.5 16.31 56.12 17.52 54.52 17.41C52.92 17.3 51.71 15.92 51.82 14.32C52.36 6.66001 56.04 2.43001 60.58 0.770011C63.58 -0.319989 66.9 -0.219989 69.9 0.800011C72.88 1.82001 75.58 3.77001 77.35 6.37001C80.07 10.37 80.64 15.78 76.79 21.61C75.67 23.31 74.22 24.58 72.52 25.5C70.98 26.33 69.26 26.85 67.42 27.13C67.22 27.17 67.01 27.2 66.8 27.2H15.41V27.21ZM2.91 40.3C1.3 40.3 0 38.99 0 37.39C0 35.78 1.3 34.48 2.91 34.48H109.98C111.15 34.3 112.21 33.98 113.11 33.49C113.98 33.02 114.72 32.37 115.29 31.51C117.61 28 117.38 24.91 115.9 22.72C114.86 21.19 113.22 20.03 111.38 19.4C109.57 18.78 107.6 18.7 105.9 19.32C103.38 20.24 101.31 22.86 100.96 27.8C100.85 29.4 99.47 30.61 97.87 30.5C96.27 30.39 95.06 29.01 95.17 27.41C95.71 19.75 99.39 15.52 103.93 13.86C106.93 12.77 110.25 12.87 113.25 13.89C116.23 14.91 118.93 16.86 120.7 19.46C123.42 23.46 123.99 28.87 120.14 34.7C119.02 36.4 117.57 37.67 115.87 38.59C114.33 39.42 112.61 39.94 110.77 40.22C110.57 40.26 110.36 40.29 110.15 40.29H2.91V40.3Z" fill="#A3C7E8"/>
</svg>
